<?xml version="1.0" encoding="iso-8859-1"?>
<!-- Uploaded to: SVG Repo, www.svgrepo.com, Generator: SVG Repo Mixer Tools -->
<svg fill="#000000" height="800px" width="800px" version="1.1" id="Layer_1" xmlns="http://www.w3.org/2000/svg" xmlns:xlink="http://www.w3.org/1999/xlink" 
	 viewBox="0 0 495.312 495.312" xml:space="preserve">
<g>
	<g>
		<path d="M495.014,246.291c-0.222-1.391-0.794-2.705-1.647-3.823c-20.659-26.974-143.164-51.166-193.724-60.134
			c2.185-13.739,9.779-45.611,33.348-45.611c14.609,0,25.847-4.335,33.399-12.885c11.307-12.817,9.293-30.106,9.199-30.839
			c-0.58-4.659-4.898-7.979-9.464-7.381c-4.651,0.546-7.996,4.779-7.475,9.438c0.009,0.111,1.084,10.615-5.137,17.579
			c-4.173,4.659-11.085,7.023-20.523,7.023c-34.372,0-45.884,36.949-49.562,56.252c-3.703-9.131-8.747-16.666-14.72-21.99
			c7.902-7.04,13.082-17.801,13.082-29.995c0-17.843-10.923-32.742-25.6-37.035V8.723c0-4.71-3.823-8.533-8.533-8.533
			c-4.719,0-8.533,3.823-8.533,8.533v78.165c-14.686,4.292-25.6,19.191-25.6,37.035c0,12.194,5.171,22.955,13.073,29.995
			c-5.973,5.325-11.008,12.86-14.72,21.99c-3.678-19.302-15.189-56.252-49.553-56.252c-9.446,0-16.35-2.364-20.531-7.023
			c-6.152-6.886-5.163-17.246-5.128-17.57c0.546-4.659-2.756-8.892-7.415-9.472c-4.702-0.606-8.943,2.731-9.523,7.407
			c-0.094,0.734-2.116,18.022,9.199,30.839c7.543,8.55,18.79,12.885,33.399,12.885c23.467,0,31.112,31.863,33.331,45.611
			C145.088,191.311,22.6,215.494,1.95,242.468c-0.862,1.118-1.425,2.432-1.655,3.823c-0.111,0.708-2.697,17.664,9.796,32.341
			c11.392,13.397,30.976,20.198,57.532,20.198h0.162c0.145,0.009,2.219,0.154,5.786,0.154c21.035,0,94.029-5.018,132.369-70.921
			c1.195,9.139,3.507,17.536,6.699,24.858l-47.249,39.381c-1.033,0.862-1.852,1.954-2.372,3.191l-25.6,59.733
			c-1.86,4.335,0.145,9.353,4.48,11.204c1.092,0.469,2.236,0.7,3.362,0.7c3.302,0,6.46-1.946,7.842-5.18l24.789-57.847
			l43.622-36.352c2.125,2.611,4.42,4.898,6.852,6.835c-5.598,6.468-9.907,15.812-12.416,27.008
			c-0.171,0.179-0.401,0.265-0.563,0.469l-34.133,42.667c-1.869,2.347-2.381,5.504-1.323,8.32l24.294,64.785l-32.469,64.939
			c-2.108,4.215-0.401,9.344,3.814,11.452c1.229,0.606,2.526,0.896,3.814,0.896c3.132,0,6.135-1.724,7.637-4.719l34.133-68.267
			c1.058-2.116,1.195-4.591,0.358-6.81l-23.902-63.727l16.137-20.164c1.86,30.515,15.804,52.753,33.911,52.753
			c18.099,0,32.043-22.238,33.903-52.753l16.137,20.164l-23.902,63.727c-0.828,2.219-0.7,4.693,0.358,6.81l34.133,68.267
			c1.502,2.995,4.506,4.727,7.646,4.719c1.28,0,2.577-0.29,3.806-0.896c4.216-2.108,5.922-7.236,3.814-11.452l-32.461-64.939
			l24.286-64.785c1.058-2.816,0.555-5.973-1.323-8.32l-34.133-42.667c-0.162-0.205-0.393-0.29-0.563-0.478
			c-2.5-11.187-6.818-20.531-12.416-26.999c2.441-1.937,4.727-4.224,6.861-6.835l43.614,36.352l24.798,57.847
			c1.382,3.234,4.531,5.18,7.842,5.18c1.126,0,2.261-0.23,3.354-0.7c4.335-1.852,6.34-6.869,4.489-11.204l-25.6-59.733
			c-0.529-1.237-1.348-2.33-2.381-3.191l-47.241-39.381c3.183-7.322,5.495-15.718,6.69-24.858
			c38.391,66.005,111.505,70.938,132.019,70.938c3.43,0,5.402-0.137,5.47-0.145c27.315,0,46.95-6.801,58.368-20.224
			C497.711,263.955,495.134,246.999,495.014,246.291z"/>
	</g>
</g>
</svg>